<?xml version="1.0" standalone="no"?>
<!DOCTYPE svg PUBLIC "-//W3C//DTD SVG 20010904//EN"
 "http://www.w3.org/TR/2001/REC-SVG-20010904/DTD/svg10.dtd">
<svg version="1.0" xmlns="http://www.w3.org/2000/svg"
 width="1003.000000pt" height="1003.000000pt" viewBox="0 0 1003.000000 1003.000000"
 preserveAspectRatio="xMidYMid meet">
<metadata>
Created by potrace 1.11, written by Peter Selinger 2001-2013
</metadata>
<g transform="translate(0.000000,1003.000000) scale(0.100000,-0.100000)"
fill="#000000" stroke="none">
<path d="M2900 8234 c-615 -74 -1188 -312 -1670 -694 -135 -107 -413 -385
-520 -520 -357 -451 -587 -978 -682 -1565 l-22 -140 -3 -1762 -3 -1763 339 0
340 0 4 1718 c3 1844 1 1747 52 1997 98 471 335 919 675 1269 146 151 270 254
439 367 380 254 840 405 1294 426 l137 6 0 339 0 338 -132 -1 c-73 -1 -185 -7
-248 -15z"/>
<path d="M3483 6544 c4 -1825 1 -1732 51 -2019 188 -1078 925 -2024 1922
-2466 314 -139 654 -228 996 -260 190 -17 606 -7 783 20 574 88 1112 322 1565
681 135 107 413 385 520 520 358 451 587 978 682 1565 l22 140 3 1763 3 1762
-340 0 -340 0 0 -1642 c0 -1064 -4 -1685 -11 -1763 -78 -895 -622 -1696 -1425
-2098 -787 -394 -1707 -363 -2454 82 -631 376 -1080 1007 -1239 1741 -56 260
-54 212 -61 1735 -6 1570 0 1445 -75 1604 -49 102 -161 214 -265 264 -92 44
-172 66 -268 74 l-73 6 4 -1709z"/>
</g>
</svg>
